<?xml version="1.0" encoding="utf-8"?>
<!-- Generator: Adobe Illustrator 24.3.0, SVG Export Plug-In . SVG Version: 6.00 Build 0)  -->
<svg version="1.1"
	 id="svg16355" inkscape:version="0.92.3 (2405546, 2018-03-11)" sodipodi:docname="Atletico Madrid 2017 logo.svg" xmlns:cc="http://creativecommons.org/ns#" xmlns:dc="http://purl.org/dc/elements/1.1/" xmlns:inkscape="http://www.inkscape.org/namespaces/inkscape" xmlns:rdf="http://www.w3.org/1999/02/22-rdf-syntax-ns#" xmlns:sodipodi="http://sodipodi.sourceforge.net/DTD/sodipodi-0.dtd" xmlns:svg="http://www.w3.org/2000/svg"
	 xmlns="http://www.w3.org/2000/svg" xmlns:xlink="http://www.w3.org/1999/xlink" x="0px" y="0px" viewBox="0 0 512 512"
	 style="enable-background:new 0 0 512 512;" xml:space="preserve">
<style type="text/css">
	.st0{fill:#FFFFFF;}
	.st1{fill:#262F61;}
	.st2{fill:#CE3524;}
</style>
<sodipodi:namedview  bordercolor="#666666" borderopacity="1.0" fit-margin-bottom="0" fit-margin-left="0" fit-margin-right="0" fit-margin-top="0" id="base" inkscape:current-layer="layer1" inkscape:cx="332.00415" inkscape:cy="565.26613" inkscape:document-units="mm" inkscape:pageopacity="0.0" inkscape:pageshadow="2" inkscape:window-height="1001" inkscape:window-maximized="1" inkscape:window-width="1920" inkscape:window-x="-9" inkscape:window-y="-9" inkscape:zoom="0.7" pagecolor="#ffffff" showgrid="false">
	</sodipodi:namedview>
<g id="layer1" transform="translate(267.66758,51.185776)" inkscape:groupmode="layer" inkscape:label="Layer 1">
	<path id="path260" inkscape:connector-curvature="0" class="st0" d="M179.3-0.38c0-19.91-13.46-26.08-32.82-30.99
		C118.3-38.81,60.24-51.15-11.7-51.15s-130,12.34-158.19,19.77c-19.35,5.05-32.82,11.08-32.82,31.13V279.1v0.14v0.14
		c0.28,23.28,11.22,45.3,29.45,59.04L-23.2,452.16l11.5,8.69l11.5-8.69l150.05-113.73c18.37-13.88,29.45-36.04,29.45-59.18
		L179.3-0.38z"/>
	<path id="path280" class="st1" d="M-11.7-51.15c-71.94,0-130,12.34-158.19,19.77c-19.35,5.05-32.82,11.08-32.82,30.99v279.35v0.14
		v0.14c0.28,23.28,11.22,45.3,29.45,59.04L-23.2,452.02l11.5,8.69l11.5-8.69l150.05-113.73c18.37-13.88,29.45-36.04,29.45-59.18
		V-0.38c0-19.91-13.46-26.08-32.82-30.99C118.3-38.81,60.24-51.15-11.7-51.15z M-15.91-36.71l4.49,14.02H3.31l-11.92,8.69
		l4.49,14.02l-11.92-8.69l-11.92,8.69l4.49-14.02l-11.92-8.69h14.72L-15.91-36.71z M-174.93-16.37l4.49,14.02h14.72l-11.92,8.69
		l4.49,14.02l-11.92-8.69l-11.92,8.69l4.49-14.02l-11.92-8.69h14.72L-174.93-16.37z M139.75-16.37l4.49,14.02h14.72l-11.92,8.69
		l4.49,14.02l-11.92-8.69l-11.92,8.69l4.49-14.02l-11.92-8.69h14.72L139.75-16.37z M70.34,7.19c1.4,0.14,2.8,0.42,4.07,0.56
		c4.07,0.56,7.99,1.12,11.78,1.82c3.79,0.56,7.57,1.26,11.08,1.96L-3.01,87.68V35.52c15.85,9.4,26.5,8.41,33.38,4.07
		c3.93-2.52,6.59-6.17,8.27-9.54C55.89,34.95,74.97,24.44,70.34,7.19z M-113.37,10.13c0.14,1.4,0.42,2.8,0.84,4.21v0.14v0.14
		c4.35,13.32,22.16,20.19,38.71,15.43c3.09,6.17,10.38,11.64,20.61,13.04c6.87,0.98,15.15,0,24.26-3.65v68.01l-62.83,47.68
		c0.14-1.54,0.28-3.09,0.28-4.91v-0.56v-0.98v-0.42c6.87-4.21,12.9-12.48,15.99-23c1.4-4.63,1.96-9.26,1.82-13.6
		c-1.26,0.56-2.66,0.98-3.93,1.12c-3.37,0.7-6.17,0.42-6.17,0.42c5.47-0.42,9.54-2.52,12.06-4.49c0.7-0.7,1.54-1.4,2.52-2.38
		c5.47-5.61,8.98-11.92,11.08-19.49l10.38-36.18c-5.33-0.56-10.66,2.1-13.46,6.59l-5.05,7.85l-4.91,7.71
		c-1.12,1.82-3.09,3.51-5.33,4.77c-3.37-2.66-6.17-4.77-8.27-6.45c-0.28-0.28-0.56-0.56-0.98-0.7l-3.23-13.6l4.77-8.41
		c1.4-2.38,1.82-5.19,1.4-7.99c-0.28-1.68-0.98-3.23-1.82-4.77c-0.84-1.12-2.38-1.4-3.51-0.7l-11.92,7.57
		c-0.28-0.28-0.7-0.56-0.98-0.84c-0.7-0.42-1.54-0.56-2.38-0.42c-1.26,0.14-2.52,0.98-4.07,2.1l-3.09,2.24l-4.49,3.37l-3.51-0.14
		l-2.38-0.14c-2.38,0-3.23,4.21-1.12,7.29c1.82,2.52,3.23,5.89,4.21,9.96v0.14c0,0.28,0.14,0.56,0.14,0.84
		c0,0.28,0.14,0.42,0.14,0.7c0.7,3.79,1.12,7.99,1.12,12.9c0,10.66-5.75,33.52-13.18,48.38c-0.42,0.7-0.7,1.26-1.12,1.96l-5.61,9.26
		c-0.84,1.4-0.7,3.37,0.42,4.91c0.7,1.12,1.96,1.82,3.51,1.82c0,0,4.49,5.61,5.89,16.41c0.7,4.91,0.7,10.94-0.7,17.95l-10.52,7.99
		l-11.22,8.55V16.72c5.33-1.26,11.5-2.66,18.23-3.93C-125.15,12.24-119.4,11.11-113.37,10.13z M156.02,39.86l-4.77,3.65l-10.24,7.85
		L156.02,39.86z M119.14,68.05v273.46L66.83,381.2V108.16l0,0L119.14,68.05L119.14,68.05z M38.5,75.06l4.49,14.02h14.72L45.8,97.78
		l4.49,14.02l-11.92-8.69l-11.92,8.69l4.49-14.02l-11.92-8.69h14.72L38.5,75.06z M-174.93,102.83l4.49,14.02h14.72l-11.92,8.69
		l4.49,14.02l-11.92-8.69l-11.92,8.69l4.49-14.02l-11.92-8.69h14.72L-174.93,102.83z M14.38,148.12v272.62l-26.08,19.77
		l-26.22-19.91V188.23l-52.31,40.11v152.72l34.08,25.8l-108.26-82.04l0,0l21.88,16.55v-73.06l52.31-40.11l52.31-40.11L14.38,148.12z
		 M-64.43,149.25l4.63,14.02h14.72L-57,171.96l4.49,14.02l-11.92-8.69l-11.92,8.69l4.63-14.02l-11.92-8.69h14.72L-64.43,149.25z
		 M-174.93,228.76l4.49,14.02h14.72l-11.92,8.69l4.49,14.02l-11.92-8.69l-11.92,8.69l4.49-14.02l-11.92-8.69h14.72L-174.93,228.76z
		 M-146.33,271.25l-15.85,12.2l-18.23,13.88l18.23-13.88L-146.33,271.25z M-182.93,299.16c2.52,7.15,6.31,13.6,11.36,19.21
		C-176.62,312.9-180.4,306.31-182.93,299.16L-182.93,299.16z M151.81,314.02c-0.14,0.28-0.42,0.56-0.56,0.7
		c-0.14,0.28-0.42,0.56-0.56,0.7c0.14-0.28,0.42-0.56,0.56-0.84C151.39,314.58,151.53,314.3,151.81,314.02z M146.49,320.05
		c-1.68,1.68-3.51,3.23-5.33,4.63l0,0l-19.91,15.01l19.91-15.15C143.12,323.28,144.8,321.74,146.49,320.05z"/>
	<path id="path276" class="st2" d="M163.03,249.8V34.39l-11.92,9.12L119,68.05v273.46l22.02-16.69l0,0
		c3.79-2.94,7.15-6.17,10.1-9.96c7.57-9.68,11.92-21.74,11.92-34.22V249.8z M66.69,108.16L66.69,108.16l-52.31,40.11v272.62
		l52.31-39.69V108.16z M-90.23,228.34L-90.23,228.34v152.72l52.31,39.69V188.23L-90.23,228.34z M-142.68,268.31l-19.63,15.01
		l-20.75,15.85c3.51,10.1,9.82,19.07,18.37,25.52l0,0l21.88,16.55L-142.68,268.31z"/>
</g>
</svg>
